<svg id="visual" viewBox="0 0 1920 1080" width="1920" height="1080" xmlns="http://www.w3.org/2000/svg" xmlns:xlink="http://www.w3.org/1999/xlink" version="1.1"><rect width="1920" height="1080" fill="#ffffff"></rect><g><g transform="translate(859 601)"><path d="M0 -89.7L77.6 -44.8L77.6 44.8L0 89.7L-77.6 44.8L-77.6 -44.8Z" fill="none" stroke="#c1d1d8" stroke-width="2"></path></g><g transform="translate(1156 759)"><path d="M0 -68L58.9 -34L58.9 34L0 68L-58.9 34L-58.9 -34Z" fill="none" stroke="#c1d1d8" stroke-width="2"></path></g><g transform="translate(611 423)"><path d="M0 -50L43.3 -25L43.3 25L0 50L-43.3 25L-43.3 -25Z" stroke="#c1d1d8" fill="none" stroke-width="2"></path></g><g transform="translate(275 258)"><path d="M0 -87L75.3 -43.5L75.3 43.5L0 87L-75.3 43.5L-75.3 -43.5Z" stroke="#c1d1d8" fill="none" stroke-width="2"></path></g><g transform="translate(1804 37)"><path d="M0 -63L54.6 -31.5L54.6 31.5L0 63L-54.6 31.5L-54.6 -31.5Z" stroke="#c1d1d8" fill="none" stroke-width="2"></path></g><g transform="translate(254 826)"><path d="M0 -45L39 -22.5L39 22.5L0 45L-39 22.5L-39 -22.5Z" stroke="#c1d1d8" fill="none" stroke-width="2"></path></g><g transform="translate(22 446)"><path d="M0 -67L58 -33.5L58 33.5L0 67L-58 33.5L-58 -33.5Z" stroke="#c1d1d8" fill="none" stroke-width="2"></path></g><g transform="translate(1126 456)"><path d="M0 -44L38.1 -22L38.1 22L0 44L-38.1 22L-38.1 -22Z" stroke="#c1d1d8" fill="none" stroke-width="2"></path></g><g transform="translate(1607 820)"><path d="M0 -46L39.8 -23L39.8 23L0 46L-39.8 23L-39.8 -23Z" stroke="#c1d1d8" fill="none" stroke-width="2"></path></g><g transform="translate(463 280)"><path d="M0 -62L53.7 -31L53.7 31L0 62L-53.7 31L-53.7 -31Z" stroke="#c1d1d8" fill="none" stroke-width="2"></path></g><g transform="translate(969 188)"><path d="M0 -46L39.8 -23L39.8 23L0 46L-39.8 23L-39.8 -23Z" stroke="#c1d1d8" fill="none" stroke-width="2"></path></g><g transform="translate(1858 797)"><path d="M0 -45L39 -22.5L39 22.5L0 45L-39 22.5L-39 -22.5Z" stroke="#c1d1d8" fill="none" stroke-width="2"></path></g><g transform="translate(171 1078)"><path d="M0 -83L71.9 -41.5L71.9 41.5L0 83L-71.9 41.5L-71.9 -41.5Z" stroke="#c1d1d8" fill="none" stroke-width="2"></path></g><g transform="translate(1267 189)"><path d="M0 -74L64.1 -37L64.1 37L0 74L-64.1 37L-64.1 -37Z" stroke="#c1d1d8" fill="none" stroke-width="2"></path></g><g transform="translate(368 520)"><path d="M0 -81L70.1 -40.5L70.1 40.5L0 81L-70.1 40.5L-70.1 -40.5Z" stroke="#c1d1d8" fill="none" stroke-width="2"></path></g><g transform="translate(1363 392)"><path d="M0 -58L50.2 -29L50.2 29L0 58L-50.2 29L-50.2 -29Z" stroke="#c1d1d8" fill="none" stroke-width="2"></path></g><g transform="translate(1761 623)"><path d="M0 -49L42.4 -24.5L42.4 24.5L0 49L-42.4 24.5L-42.4 -24.5Z" stroke="#c1d1d8" fill="none" stroke-width="2"></path></g><g transform="translate(641 77)"><path d="M0 -69L59.8 -34.5L59.8 34.5L0 69L-59.8 34.5L-59.8 -34.5Z" stroke="#c1d1d8" fill="none" stroke-width="2"></path></g><g transform="translate(1489 1007)"><path d="M0 -73L63.2 -36.5L63.2 36.5L0 73L-63.2 36.5L-63.2 -36.5Z" stroke="#c1d1d8" fill="none" stroke-width="2"></path></g><g transform="translate(1631 163)"><path d="M0 -68L58.9 -34L58.9 34L0 68L-58.9 34L-58.9 -34Z" stroke="#c1d1d8" fill="none" stroke-width="2"></path></g><g transform="translate(107 152)"><path d="M0 -72L62.4 -36L62.4 36L0 72L-62.4 36L-62.4 -36Z" stroke="#c1d1d8" fill="none" stroke-width="2"></path></g><g transform="translate(860 4)"><path d="M0 -68L58.9 -34L58.9 34L0 68L-58.9 34L-58.9 -34Z" stroke="#c1d1d8" fill="none" stroke-width="2"></path></g><g transform="translate(1155 980)"><path d="M0 -65L56.3 -32.5L56.3 32.5L0 65L-56.3 32.5L-56.3 -32.5Z" stroke="#c1d1d8" fill="none" stroke-width="2"></path></g><g transform="translate(1296 634)"><path d="M0 -67L58 -33.5L58 33.5L0 67L-58 33.5L-58 -33.5Z" stroke="#c1d1d8" fill="none" stroke-width="2"></path></g><g transform="translate(718 987)"><path d="M0 -74L64.1 -37L64.1 37L0 74L-64.1 37L-64.1 -37Z" stroke="#c1d1d8" fill="none" stroke-width="2"></path></g><g transform="translate(513 839)"><path d="M0 -86L74.5 -43L74.5 43L0 86L-74.5 43L-74.5 -43Z" stroke="#c1d1d8" fill="none" stroke-width="2"></path></g><g transform="translate(811 277)"><path d="M0 -46L39.8 -23L39.8 23L0 46L-39.8 23L-39.8 -23Z" stroke="#c1d1d8" fill="none" stroke-width="2"></path></g><g transform="translate(1384 15)"><path d="M0 -64L55.4 -32L55.4 32L0 64L-55.4 32L-55.4 -32Z" stroke="#c1d1d8" fill="none" stroke-width="2"></path></g></g></svg>