<svg id="visual" viewBox="0 0 1920 1080" width="1920" height="1080" xmlns="http://www.w3.org/2000/svg" xmlns:xlink="http://www.w3.org/1999/xlink" version="1.1"><g stroke-width="1" stroke-linejoin="bevel"><path d="M1054.7 531L833.3 522L1028.7 683Z" fill="#f5f5f5" stroke="#f5f5f5"></path><path d="M833.3 522L885.3 752L1028.7 683Z" fill="#fcfcfc" stroke="#fcfcfc"></path><path d="M1054.7 531L820.3 376L833.3 522Z" fill="#f1f1f1" stroke="#f1f1f1"></path><path d="M1054.7 531L1065.7 326L820.3 376Z" fill="#e8e8e8" stroke="#e8e8e8"></path><path d="M673 736L859.3 871L885.3 752Z" fill="#ffffff" stroke="#ffffff"></path><path d="M885.3 752L1086.7 876L1028.7 683Z" fill="#e4e4e4" stroke="#e4e4e4"></path><path d="M673 736L885.3 752L833.3 522Z" fill="#f5f5f5" stroke="#f5f5f5"></path><path d="M626 569L673 736L833.3 522Z" fill="#f1f1f1" stroke="#f1f1f1"></path><path d="M1297 709L1250 540L1028.7 683Z" fill="#f8f8f8" stroke="#f8f8f8"></path><path d="M1028.7 683L1250 540L1054.7 531Z" fill="#fcfcfc" stroke="#fcfcfc"></path><path d="M1054.7 531L1250 540L1065.7 326Z" fill="#e1e1e1" stroke="#e1e1e1"></path><path d="M604 381L626 569L833.3 522Z" fill="#e8e8e8" stroke="#e8e8e8"></path><path d="M859.3 871L1086.7 876L885.3 752Z" fill="#dedede" stroke="#dedede"></path><path d="M1086.7 876L1297 709L1028.7 683Z" fill="#dedede" stroke="#dedede"></path><path d="M820.3 376L604 381L833.3 522Z" fill="#f8f8f8" stroke="#f8f8f8"></path><path d="M677 161L604 381L820.3 376Z" fill="#e8e8e8" stroke="#e8e8e8"></path><path d="M1259 329L1041.7 195L1065.7 326Z" fill="#e1e1e1" stroke="#e1e1e1"></path><path d="M1065.7 326L858.3 166L820.3 376Z" fill="#f8f8f8" stroke="#f8f8f8"></path><path d="M1505.3 348L1259 329L1250 540Z" fill="#e4e4e4" stroke="#e4e4e4"></path><path d="M1250 540L1259 329L1065.7 326Z" fill="#f5f5f5" stroke="#f5f5f5"></path><path d="M673 736L634 890L859.3 871Z" fill="#ebebeb" stroke="#ebebeb"></path><path d="M1075.7 1080L1248 904L1086.7 876Z" fill="#f5f5f5" stroke="#f5f5f5"></path><path d="M448.7 741L634 890L673 736Z" fill="#ffffff" stroke="#ffffff"></path><path d="M448.7 741L673 736L626 569Z" fill="#eeeeee" stroke="#eeeeee"></path><path d="M1041.7 195L858.3 166L1065.7 326Z" fill="#e4e4e4" stroke="#e4e4e4"></path><path d="M1086.7 876L1248 904L1297 709Z" fill="#ffffff" stroke="#ffffff"></path><path d="M1075.7 1080L1086.7 876L859.3 871Z" fill="#e4e4e4" stroke="#e4e4e4"></path><path d="M634 890L834.3 1080L859.3 871Z" fill="#f5f5f5" stroke="#f5f5f5"></path><path d="M858.3 166L677 161L820.3 376Z" fill="#e4e4e4" stroke="#e4e4e4"></path><path d="M834.3 1080L1075.7 1080L859.3 871Z" fill="#e8e8e8" stroke="#e8e8e8"></path><path d="M402.7 565L626 569L604 381Z" fill="#fcfcfc" stroke="#fcfcfc"></path><path d="M402.7 565L448.7 741L626 569Z" fill="#fcfcfc" stroke="#fcfcfc"></path><path d="M634 890L637 1080L834.3 1080Z" fill="#e4e4e4" stroke="#e4e4e4"></path><path d="M400.7 370L402.7 565L604 381Z" fill="#dedede" stroke="#dedede"></path><path d="M1493.3 188L1305 143L1259 329Z" fill="#f8f8f8" stroke="#f8f8f8"></path><path d="M1259 329L1305 143L1041.7 195Z" fill="#e8e8e8" stroke="#e8e8e8"></path><path d="M1041.7 195L1030.7 0L858.3 166Z" fill="#e4e4e4" stroke="#e4e4e4"></path><path d="M858.3 166L818.3 0L677 161Z" fill="#ffffff" stroke="#ffffff"></path><path d="M433.7 913L637 1080L634 890Z" fill="#f8f8f8" stroke="#f8f8f8"></path><path d="M390.7 197L400.7 370L604 381Z" fill="#e4e4e4" stroke="#e4e4e4"></path><path d="M1532.3 743L1524.3 536L1297 709Z" fill="#f1f1f1" stroke="#f1f1f1"></path><path d="M1297 709L1524.3 536L1250 540Z" fill="#dedede" stroke="#dedede"></path><path d="M1246 0L1030.7 0L1041.7 195Z" fill="#eeeeee" stroke="#eeeeee"></path><path d="M195.3 891L433.7 913L448.7 741Z" fill="#ffffff" stroke="#ffffff"></path><path d="M448.7 741L433.7 913L634 890Z" fill="#e1e1e1" stroke="#e1e1e1"></path><path d="M1030.7 0L818.3 0L858.3 166Z" fill="#ffffff" stroke="#ffffff"></path><path d="M677 161L390.7 197L604 381Z" fill="#ffffff" stroke="#ffffff"></path><path d="M1481.3 914L1532.3 743L1297 709Z" fill="#f1f1f1" stroke="#f1f1f1"></path><path d="M1481.3 914L1297 709L1248 904Z" fill="#fcfcfc" stroke="#fcfcfc"></path><path d="M1075.7 1080L1309 1080L1248 904Z" fill="#fcfcfc" stroke="#fcfcfc"></path><path d="M1524.3 536L1505.3 348L1250 540Z" fill="#e8e8e8" stroke="#e8e8e8"></path><path d="M1309 1080L1481.3 914L1248 904Z" fill="#e8e8e8" stroke="#e8e8e8"></path><path d="M818.3 0L666 0L677 161Z" fill="#ebebeb" stroke="#ebebeb"></path><path d="M1455.3 0L1246 0L1305 143Z" fill="#e8e8e8" stroke="#e8e8e8"></path><path d="M1305 143L1246 0L1041.7 195Z" fill="#ffffff" stroke="#ffffff"></path><path d="M400.7 370L252.3 573L402.7 565Z" fill="#f5f5f5" stroke="#f5f5f5"></path><path d="M417.7 0L390.7 197L677 161Z" fill="#e8e8e8" stroke="#e8e8e8"></path><path d="M1707.7 186L1493.3 188L1505.3 348Z" fill="#dedede" stroke="#dedede"></path><path d="M1505.3 348L1493.3 188L1259 329Z" fill="#e8e8e8" stroke="#e8e8e8"></path><path d="M177.3 343L252.3 573L400.7 370Z" fill="#f1f1f1" stroke="#f1f1f1"></path><path d="M402.7 565L252.3 573L448.7 741Z" fill="#e4e4e4" stroke="#e4e4e4"></path><path d="M433.7 913L441.7 1080L637 1080Z" fill="#f8f8f8" stroke="#f8f8f8"></path><path d="M219.3 1080L441.7 1080L433.7 913Z" fill="#e8e8e8" stroke="#e8e8e8"></path><path d="M1309 1080L1464.3 1080L1481.3 914Z" fill="#f5f5f5" stroke="#f5f5f5"></path><path d="M1481.3 914L1705.7 756L1532.3 743Z" fill="#eeeeee" stroke="#eeeeee"></path><path d="M0 539L184.3 689L252.3 573Z" fill="#ffffff" stroke="#ffffff"></path><path d="M252.3 573L184.3 689L448.7 741Z" fill="#eeeeee" stroke="#eeeeee"></path><path d="M1728.7 558L1689.7 382L1524.3 536Z" fill="#e4e4e4" stroke="#e4e4e4"></path><path d="M1524.3 536L1689.7 382L1505.3 348Z" fill="#ffffff" stroke="#ffffff"></path><path d="M1728.7 558L1524.3 536L1532.3 743Z" fill="#dedede" stroke="#dedede"></path><path d="M1742.7 939L1705.7 756L1481.3 914Z" fill="#dedede" stroke="#dedede"></path><path d="M1710.7 0L1455.3 0L1493.3 188Z" fill="#f1f1f1" stroke="#f1f1f1"></path><path d="M1493.3 188L1455.3 0L1305 143Z" fill="#dedede" stroke="#dedede"></path><path d="M1705.7 756L1728.7 558L1532.3 743Z" fill="#f5f5f5" stroke="#f5f5f5"></path><path d="M666 0L417.7 0L677 161Z" fill="#eeeeee" stroke="#eeeeee"></path><path d="M226.3 194L177.3 343L400.7 370Z" fill="#eeeeee" stroke="#eeeeee"></path><path d="M226.3 194L400.7 370L390.7 197Z" fill="#e1e1e1" stroke="#e1e1e1"></path><path d="M184.3 689L195.3 891L448.7 741Z" fill="#eeeeee" stroke="#eeeeee"></path><path d="M417.7 0L226.3 194L390.7 197Z" fill="#ebebeb" stroke="#ebebeb"></path><path d="M1689.7 382L1707.7 186L1505.3 348Z" fill="#dedede" stroke="#dedede"></path><path d="M1920 389L1707.7 186L1689.7 382Z" fill="#e1e1e1" stroke="#e1e1e1"></path><path d="M195.3 891L219.3 1080L433.7 913Z" fill="#fcfcfc" stroke="#fcfcfc"></path><path d="M1691.7 1080L1742.7 939L1481.3 914Z" fill="#f1f1f1" stroke="#f1f1f1"></path><path d="M1920 753L1920 511L1728.7 558Z" fill="#f1f1f1" stroke="#f1f1f1"></path><path d="M1464.3 1080L1691.7 1080L1481.3 914Z" fill="#dedede" stroke="#dedede"></path><path d="M0 334L0 539L177.3 343Z" fill="#e4e4e4" stroke="#e4e4e4"></path><path d="M177.3 343L0 539L252.3 573Z" fill="#e8e8e8" stroke="#e8e8e8"></path><path d="M184.3 689L0 750L195.3 891Z" fill="#e8e8e8" stroke="#e8e8e8"></path><path d="M195.3 891L0 937L219.3 1080Z" fill="#e4e4e4" stroke="#e4e4e4"></path><path d="M0 539L0 750L184.3 689Z" fill="#ebebeb" stroke="#ebebeb"></path><path d="M0 184L0 334L177.3 343Z" fill="#ffffff" stroke="#ffffff"></path><path d="M417.7 0L188.3 0L226.3 194Z" fill="#e8e8e8" stroke="#e8e8e8"></path><path d="M1920 164L1710.7 0L1707.7 186Z" fill="#f1f1f1" stroke="#f1f1f1"></path><path d="M1707.7 186L1710.7 0L1493.3 188Z" fill="#f1f1f1" stroke="#f1f1f1"></path><path d="M1920 389L1689.7 382L1728.7 558Z" fill="#f1f1f1" stroke="#f1f1f1"></path><path d="M0 184L177.3 343L226.3 194Z" fill="#f8f8f8" stroke="#f8f8f8"></path><path d="M1920 753L1705.7 756L1920 884Z" fill="#ebebeb" stroke="#ebebeb"></path><path d="M1920 753L1728.7 558L1705.7 756Z" fill="#e4e4e4" stroke="#e4e4e4"></path><path d="M1920 884L1705.7 756L1742.7 939Z" fill="#dedede" stroke="#dedede"></path><path d="M1920 511L1920 389L1728.7 558Z" fill="#e1e1e1" stroke="#e1e1e1"></path><path d="M0 750L0 937L195.3 891Z" fill="#e4e4e4" stroke="#e4e4e4"></path><path d="M1920 1080L1920 884L1742.7 939Z" fill="#ffffff" stroke="#ffffff"></path><path d="M188.3 0L0 184L226.3 194Z" fill="#ffffff" stroke="#ffffff"></path><path d="M0 937L0 1080L219.3 1080Z" fill="#fcfcfc" stroke="#fcfcfc"></path><path d="M1920 389L1920 164L1707.7 186Z" fill="#ebebeb" stroke="#ebebeb"></path><path d="M1691.7 1080L1920 1080L1742.7 939Z" fill="#f8f8f8" stroke="#f8f8f8"></path><path d="M188.3 0L0 0L0 184Z" fill="#e1e1e1" stroke="#e1e1e1"></path><path d="M1920 164L1920 0L1710.7 0Z" fill="#f8f8f8" stroke="#f8f8f8"></path></g></svg>